<?xml version="1.0" standalone="no"?>
<!DOCTYPE svg PUBLIC "-//W3C//DTD SVG 20010904//EN"
 "http://www.w3.org/TR/2001/REC-SVG-20010904/DTD/svg10.dtd">
<svg version="1.0" xmlns="http://www.w3.org/2000/svg"
 width="720.000000pt" height="720.000000pt" viewBox="0 0 720.000000 720.000000"
 preserveAspectRatio="xMidYMid meet">
<metadata>
Created by potrace 1.15, written by Peter Selinger 2001-2017
</metadata>
<g transform="translate(0.000000,720.000000) scale(0.100000,-0.100000)"
fill="#EC5D57" stroke="none">
<path d="M3290 7194 c-19 -2 -91 -11 -160 -20 -1529 -194 -2778 -1368 -3069
-2884 -50 -261 -56 -329 -56 -690 0 -361 6 -429 56 -690 272 -1419 1386 -2547
2801 -2839 282 -58 372 -66 738 -66 366 0 456 8 738 66 1400 289 2502 1391
2791 2791 58 283 66 372 66 743 0 356 -6 426 -56 685 -273 1425 -1396 2557
-2824 2845 -234 47 -342 57 -670 60 -176 2 -336 1 -355 -1z m777 -1329 c203
-27 363 -74 526 -156 178 -90 272 -167 586 -482 l234 -235 -14 -64 c-57 -255
53 -435 253 -414 31 3 79 14 106 24 l50 19 138 -138 137 -137 -25 -30 c-14
-16 -153 -168 -309 -337 l-284 -308 -151 158 -151 159 19 44 c50 113 28 222
-63 307 -90 84 -199 113 -299 80 -42 -14 -73 -37 -154 -116 l-102 -98 -259
259 -258 258 84 91 c113 123 132 158 127 242 -4 85 -44 151 -138 233 -246 213
-610 360 -950 384 l-95 7 -3 82 -3 81 88 21 c121 28 301 59 403 70 141 14 380
12 507 -4z m160 -1707 l182 -176 -1126 -1252 -1126 -1252 -329 329 c-181 180
-327 333 -326 340 2 7 536 539 1188 1182 l1185 1170 85 -82 c47 -45 167 -162
267 -259z"/>
</g>
</svg>
