<svg width="100" fill="#EC5D57" height="100" xmlns="http://www.w3.org/2000/svg">

 <g>
  <title>background</title>
  <rect fill="none" id="canvas_background" height="402" width="582" y="-1" x="-1"/>
 </g>
 <g>
  <title>Layer 1</title>
  <path stroke="null" id="svg_1" d="m49.999999,4.999995c-24.875002,0 -45.000004,20.125002 -45.000004,45.000003c0,24.875002 20.125002,45.000003 45.000004,45.000003s45.000004,-20.125002 45.000004,-45.000003c0,-24.875002 -20.125002,-45.000003 -45.000004,-45.000003zm-3.125,57.375004c0,2.125 -1.75,3.875 -3.875,3.875s-3.875,-1.75 -3.875,-3.875l0,-25.500002c0,-2.125 1.75,-3.875 3.875,-3.875s3.875,1.75 3.875,3.875l0,25.500002zm15.625001,0c0,2.125 -1.75,3.875 -3.875,3.875s-3.875,-1.75 -3.875,-3.875l0,-25.500002c0,-2.125 1.75,-3.875 3.875,-3.875s3.875,1.75 3.875,3.875l0,25.500002z"/>
 </g>
</svg>