<svg width='200' height='200' fill="#EC5D57" xmlns="http://www.w3.org/2000/svg" xmlns:xlink="http://www.w3.org/1999/xlink" version="1.1" x="0px" y="0px" viewBox="0 0 100 100" style="enable-background:new 0 0 100 100;" xml:space="preserve"><path d="M50,14c-19.9,0-36,16.1-36,36c0,19.9,16.1,36,36,36s36-16.1,36-36C86,30.1,69.9,14,50,14z M47.5,59.9c0,1.7-1.4,3.1-3.1,3.1  s-3.1-1.4-3.1-3.1V39.5c0-1.7,1.4-3.1,3.1-3.1s3.1,1.4,3.1,3.1V59.9z M60,59.9c0,1.7-1.4,3.1-3.1,3.1s-3.1-1.4-3.1-3.1V39.5  c0-1.7,1.4-3.1,3.1-3.1s3.1,1.4,3.1,3.1V59.9z"/></svg>