<?xml version="1.0" encoding="utf-8"?>
<svg width="200" height="200" fill="#EC5D57" version="1.1" x="0px" y="0px" viewBox="0 0 100 100" style="enable-background:new 0 0 100 100;" xmlns="http://www.w3.org/2000/svg">
  <style type="text/css">
	.st0{fill:none;stroke:#EC5D57;stroke-width:4;stroke-miterlimit:10;}
</style>
  <path d="M 50 5 C 25.1 5 5 25.1 5 50 C 5 74.9 25.1 95 50 95 C 74.9 95 95 74.9 95 50 C 95 25.1 74.9 5 50 5 Z M 50 58.5 C 45 58.5 41 54.5 41 49.5 C 41 46.1 42.9 43.2 45.6 41.7 L 50 9 L 54.4 41.7 C 57.1 43.2 59 46.2 59 49.5 C 59 54.5 55 58.5 50 58.5 Z" transform="matrix(0, 1, -1, 0, 99.999999, 0)"/>
</svg>